<?xml version="1.0" encoding="utf-8"?>
<!-- Generator: Adobe Illustrator 16.0.0, SVG Export Plug-In . SVG Version: 6.00 Build 0)  -->
<!DOCTYPE svg PUBLIC "-//W3C//DTD SVG 1.1//EN" "http://www.w3.org/Graphics/SVG/1.1/DTD/svg11.dtd">
<svg version="1.1" id="Layer_1" xmlns="http://www.w3.org/2000/svg" xmlns:xlink="http://www.w3.org/1999/xlink" x="0px" y="0px"
	 width="720px" height="508.875px" viewBox="0 0 720 508.875" enable-background="new 0 0 720 508.875" xml:space="preserve">
<path fill-rule="evenodd" clip-rule="evenodd" fill="#F9C81D" d="M122.898,350.292c-0.058,0-0.117,0.019-0.174,0.019
	c0.058-0.038,0.097-0.097,0.155-0.135C122.879,350.214,122.898,350.254,122.898,350.292z"/>
<path fill-rule="evenodd" clip-rule="evenodd" fill="#F9C81D" d="M121.132,351.688c0.524-0.464,1.068-0.911,1.592-1.377
	c0.058-0.038,0.097-0.097,0.155-0.135c0,0.038,0.02,0.078,0.02,0.116C123.151,351.729,122.005,351.554,121.132,351.688z"/>
<path fill-rule="evenodd" clip-rule="evenodd" fill="#F0C01A" d="M246.97,257.794c-0.045,0.563-0.053,1.145-0.018,1.77l-0.025,0.009
	C246.891,258.95,246.901,258.366,246.97,257.794z"/>
<path fill-rule="evenodd" clip-rule="evenodd" fill="#FAC718" d="M246.97,257.794c-0.045,0.563-0.053,1.145-0.018,1.77l-0.025,0.009
	C246.891,258.95,246.901,258.366,246.97,257.794z"/>
<path fill-rule="evenodd" clip-rule="evenodd" fill="#F4F3F0" d="M170.235,263.39l-1.322,0.209c-0.066-0.552,0.116-0.96,0.572-1.231
	L170.235,263.39z"/>
<g>
	<path fill="#F7C61B" d="M52.187,264.124H34.284v-5.495c0-2.563-0.229-4.196-0.687-4.899c-0.458-0.702-1.221-1.053-2.29-1.053
		c-1.16,0-2.037,0.474-2.633,1.42c-0.595,0.947-0.893,2.383-0.893,4.307c0,2.475,0.334,4.338,1.004,5.59
		c0.639,1.253,2.455,2.764,5.447,4.532c8.581,5.093,13.985,9.272,16.213,12.539c2.228,3.267,3.342,8.531,3.342,15.796
		c0,5.281-0.618,9.174-1.854,11.676c-1.236,2.503-3.625,4.602-7.166,6.296s-7.662,2.541-12.362,2.541
		c-5.159,0-9.563-0.978-13.209-2.931c-3.648-1.953-6.037-4.441-7.166-7.463c-1.129-3.021-1.694-7.311-1.694-12.866v-4.854H28.24
		v9.021c0,2.777,0.251,4.563,0.755,5.356c0.503,0.795,1.396,1.19,2.679,1.19c1.282,0,2.235-0.503,2.861-1.511
		c0.625-1.007,0.939-2.502,0.939-4.487c0-4.364-0.595-7.219-1.786-8.562c-1.222-1.343-4.229-3.587-9.021-6.731
		c-4.792-3.174-7.967-5.479-9.523-6.913s-2.847-3.419-3.869-5.953c-1.023-2.533-1.534-5.769-1.534-9.706
		c0-5.678,0.725-9.829,2.175-12.455c1.449-2.625,3.792-4.677,7.028-6.158c3.235-1.48,7.143-2.221,11.722-2.221
		c5.005,0,9.271,0.809,12.797,2.427c3.525,1.618,5.861,3.656,7.005,6.113s1.717,6.632,1.717,12.522V264.124z"/>
	<path fill="#F7C61B" d="M110.872,241.688v49.542c0,5.617-0.184,9.563-0.55,11.836c-0.366,2.274-1.45,4.609-3.251,7.006
		c-1.801,2.396-4.174,4.212-7.12,5.448c-2.946,1.236-6.418,1.854-10.417,1.854c-4.426,0-8.333-0.732-11.722-2.197
		c-3.388-1.466-5.922-3.373-7.601-5.724c-1.679-2.351-2.671-4.831-2.976-7.44c-0.306-2.61-0.458-8.097-0.458-16.461v-43.864h19.276
		v55.585c0,3.236,0.175,5.305,0.527,6.204c0.35,0.901,1.06,1.351,2.129,1.351c1.221,0,2.007-0.495,2.358-1.487
		c0.351-0.992,0.527-3.335,0.527-7.028v-54.625H110.872z"/>
	<path fill="#F7C61B" d="M168.595,241.688v74.129H151.7l-10.027-33.699v33.699h-16.117v-74.129h16.117l10.806,33.379v-33.379
		H168.595z"/>
	<path fill="#FFFFFF" stroke="#000000" stroke-width="1.3024" stroke-miterlimit="10" d="M183.554,241.688h19.23
		c6.074,0,10.676,0.473,13.805,1.419s5.655,2.859,7.578,5.742c1.923,2.883,2.885,7.527,2.885,13.933c0,4.332-0.68,7.353-2.038,9.061
		c-1.358,1.708-4.037,3.02-8.036,3.935c4.457,1.008,7.479,2.681,9.066,5.017c1.587,2.337,2.381,5.918,2.381,10.744v6.871
		c0,5.01-0.572,8.721-1.717,11.133c-1.145,2.413-2.969,4.063-5.472,4.948c-2.503,0.886-7.631,1.328-15.384,1.328h-22.298V241.688z
		 M202.83,254.371v16.483c0.824-0.03,1.465-0.046,1.923-0.046c1.893,0,3.098-0.465,3.617-1.396c0.519-0.931,0.778-3.594,0.778-7.989
		c0-2.32-0.214-3.945-0.641-4.877c-0.428-0.931-0.985-1.518-1.671-1.763C206.149,254.539,204.814,254.401,202.83,254.371z
		 M202.83,282.392v20.742c2.716-0.092,4.448-0.52,5.197-1.282c0.748-0.763,1.122-2.64,1.122-5.632v-6.914
		c0-3.174-0.336-5.098-1.007-5.77C207.47,282.866,205.699,282.484,202.83,282.392z"/>
	<path fill="#FFFFFF" stroke="#000000" stroke-width="1.3024" stroke-miterlimit="10" d="M242.56,241.688h32.143v14.835h-12.866
		v14.057h12.042v14.103h-12.042v16.3h14.148v14.835H242.56V241.688z"/>
	<path fill="#FFFFFF" stroke="#000000" stroke-width="1.3024" stroke-miterlimit="10" d="M322.066,241.688l11.023,74.129h-19.7
		l-1.035-13.324h-6.896l-1.159,13.324h-19.929l9.833-74.129H322.066z M311.85,289.352c-0.976-8.396-1.954-18.774-2.936-31.136
		c-1.964,14.195-3.197,24.574-3.699,31.136H311.85z"/>
	<path fill="#FFFFFF" stroke="#000000" stroke-width="1.3024" stroke-miterlimit="10" d="M403.06,241.688v74.129h-16.85
		l-0.021-50.045l-6.709,50.045h-11.949l-7.075-48.9l-0.023,48.9h-16.85v-74.129h24.943c0.738,4.457,1.502,9.71,2.287,15.759
		l2.736,18.855l4.43-34.615H403.06z"/>
	<path fill="#FFFFFF" stroke="#000000" stroke-width="1.3024" stroke-miterlimit="10" d="M486.09,241.688v74.129h-19.276v-31.135
		h-5.77v31.135h-19.276v-74.129h19.276v26.511h5.77v-26.511H486.09z"/>
	<path fill="#FFFFFF" stroke="#000000" stroke-width="1.3024" stroke-miterlimit="10" d="M545.096,285.094
		c0,7.448-0.177,12.721-0.526,15.819c-0.352,3.098-1.45,5.929-3.297,8.493c-1.848,2.564-4.343,4.533-7.486,5.906
		c-3.145,1.374-6.808,2.061-10.989,2.061c-3.968,0-7.531-0.648-10.691-1.946c-3.159-1.297-5.7-3.242-7.623-5.837
		s-3.067-5.418-3.435-8.471c-0.366-3.053-0.549-8.395-0.549-16.025v-12.684c0-7.447,0.175-12.721,0.526-15.819
		c0.351-3.098,1.449-5.929,3.297-8.494c1.847-2.564,4.342-4.533,7.486-5.906c3.144-1.374,6.807-2.061,10.988-2.061
		c3.968,0,7.532,0.649,10.691,1.946c3.159,1.298,5.7,3.244,7.624,5.838c1.923,2.595,3.067,5.419,3.434,8.471
		c0.366,3.053,0.55,8.395,0.55,16.025V285.094z M525.82,260.735c0-3.449-0.191-5.654-0.572-6.616
		c-0.383-0.961-1.168-1.442-2.358-1.442c-1.007,0-1.778,0.389-2.313,1.167s-0.801,3.075-0.801,6.891v34.615
		c0,4.304,0.175,6.96,0.526,7.967c0.351,1.008,1.168,1.511,2.449,1.511c1.313,0,2.152-0.579,2.519-1.739s0.55-3.922,0.55-8.288
		V260.735z"/>
	<path fill="#FFFFFF" stroke="#000000" stroke-width="1.3024" stroke-miterlimit="10" d="M598.333,241.688v14.835h-11.447v59.294
		H567.61v-59.294h-11.4v-14.835H598.333z"/>
	<path fill="#FFFFFF" stroke="#000000" stroke-width="1.3024" stroke-miterlimit="10" d="M609.949,241.688h32.143v14.835h-12.866
		v14.057h12.042v14.103h-12.042v16.3h14.148v14.835h-33.425V241.688z"/>
	<path fill="#FFFFFF" stroke="#000000" stroke-width="1.3024" stroke-miterlimit="10" d="M675.41,241.688v59.294h11.722v14.835
		h-30.998v-74.129H675.41z"/>
	<path fill="#FFFFFF" stroke="#000000" stroke-width="1.3024" stroke-miterlimit="10" d="M18.816,418.336V358.67h25.356
		c6.375,0,11.009,0.536,13.899,1.608s5.203,2.978,6.939,5.718c1.736,2.741,2.605,5.875,2.605,9.401
		c0,4.478-1.316,8.175-3.948,11.091c-2.632,2.917-6.567,4.756-11.803,5.515c2.605,1.521,4.755,3.188,6.451,5.007
		c1.695,1.817,3.981,5.046,6.858,9.687l7.285,11.64H58.051l-8.709-12.983c-3.093-4.64-5.21-7.563-6.35-8.771
		c-1.139-1.207-2.347-2.035-3.622-2.482c-1.276-0.448-3.297-0.672-6.064-0.672h-2.442v24.908H18.816z M30.863,383.905h8.914
		c5.779,0,9.387-0.244,10.826-0.732c1.438-0.489,2.564-1.329,3.378-2.523s1.221-2.687,1.221-4.478c0-2.008-0.536-3.628-1.607-4.863
		c-1.072-1.234-2.584-2.015-4.538-2.34c-0.977-0.136-3.907-0.204-8.791-0.204h-9.402V383.905z"/>
	<path fill="#FFFFFF" stroke="#000000" stroke-width="1.3024" stroke-miterlimit="10" d="M98.475,418.336V358.67h44.24v10.094
		h-32.193v13.228h29.955v10.053h-29.955v16.239h33.333v10.053H98.475z"/>
	<path fill="#FFFFFF" stroke="#000000" stroke-width="1.3024" stroke-miterlimit="10" d="M170.522,398.922l11.722-1.14
		c0.705,3.935,2.137,6.824,4.293,8.669c2.157,1.846,5.067,2.768,8.73,2.768c3.879,0,6.803-0.82,8.771-2.462
		c1.967-1.642,2.951-3.562,2.951-5.759c0-1.41-0.414-2.611-1.241-3.603c-0.828-0.989-2.273-1.852-4.334-2.584
		c-1.411-0.488-4.626-1.356-9.646-2.604c-6.458-1.601-10.989-3.567-13.594-5.901c-3.663-3.283-5.494-7.285-5.494-12.007
		c0-3.038,0.861-5.881,2.584-8.526c1.723-2.646,4.205-4.66,7.448-6.044c3.242-1.384,7.156-2.076,11.742-2.076
		c7.488,0,13.125,1.643,16.911,4.925c3.785,3.283,5.772,7.666,5.962,13.146l-12.047,0.529c-0.516-3.066-1.622-5.271-3.317-6.614
		c-1.696-1.343-4.24-2.015-7.631-2.015c-3.5,0-6.241,0.72-8.221,2.157c-1.275,0.923-1.913,2.157-1.913,3.704
		c0,1.411,0.596,2.618,1.791,3.622c1.52,1.275,5.209,2.604,11.07,3.988s10.195,2.815,13.003,4.294
		c2.809,1.479,5.006,3.5,6.593,6.064c1.587,2.563,2.381,5.732,2.381,9.503c0,3.419-0.95,6.621-2.849,9.605
		c-1.899,2.985-4.586,5.203-8.059,6.654c-3.474,1.451-7.801,2.178-12.983,2.178c-7.543,0-13.336-1.743-17.379-5.23
		C173.724,410.678,171.309,405.597,170.522,398.922z"/>
	<path fill="#FFFFFF" stroke="#000000" stroke-width="1.3024" stroke-miterlimit="10" d="M262.106,418.336v-49.572h-17.704V358.67
		h47.415v10.094h-17.664v49.572H262.106z"/>
	<path fill="#FFFFFF" stroke="#000000" stroke-width="1.3024" stroke-miterlimit="10" d="M319.014,358.67h12.047v32.315
		c0,5.129,0.149,8.452,0.448,9.972c0.515,2.442,1.743,4.402,3.684,5.881c1.939,1.479,4.592,2.219,7.957,2.219
		c3.419,0,5.996-0.698,7.733-2.097c1.736-1.396,2.781-3.113,3.134-5.148c0.353-2.034,0.529-5.413,0.529-10.134V358.67h12.047v31.339
		c0,7.163-0.325,12.224-0.977,15.182c-0.651,2.957-1.852,5.453-3.602,7.488c-1.75,2.035-4.091,3.656-7.021,4.863
		c-2.931,1.207-6.756,1.812-11.478,1.812c-5.698,0-10.019-0.658-12.963-1.974c-2.944-1.316-5.271-3.025-6.98-5.129
		c-1.709-2.102-2.835-4.307-3.378-6.613c-0.787-3.419-1.18-8.466-1.18-15.141V358.67z"/>
	<path fill="#FFFFFF" stroke="#000000" stroke-width="1.3024" stroke-miterlimit="10" d="M398.834,418.336V358.67h25.356
		c6.376,0,11.009,0.536,13.898,1.608s5.203,2.978,6.939,5.718c1.736,2.741,2.604,5.875,2.604,9.401
		c0,4.478-1.316,8.175-3.947,11.091c-2.632,2.917-6.566,4.756-11.803,5.515c2.604,1.521,4.755,3.188,6.45,5.007
		c1.695,1.817,3.982,5.046,6.858,9.687l7.285,11.64H438.07l-8.71-12.983c-3.094-4.64-5.21-7.563-6.35-8.771
		c-1.14-1.207-2.347-2.035-3.622-2.482c-1.275-0.448-3.297-0.672-6.064-0.672h-2.441v24.908H398.834z M410.882,383.905h8.913
		c5.779,0,9.388-0.244,10.826-0.732c1.438-0.489,2.563-1.329,3.378-2.523c0.813-1.194,1.221-2.687,1.221-4.478
		c0-2.008-0.536-3.628-1.607-4.863c-1.072-1.234-2.585-2.015-4.538-2.34c-0.977-0.136-3.907-0.204-8.791-0.204h-9.401V383.905z"/>
	<path fill="#FFFFFF" stroke="#000000" stroke-width="1.3024" stroke-miterlimit="10" d="M532.298,418.336h-13.105l-5.209-13.553
		h-23.851l-4.925,13.553h-12.779l23.239-59.666h12.739L532.298,418.336z M510.117,394.731l-8.221-22.141l-8.059,22.141H510.117z"/>
	<path fill="#FFFFFF" stroke="#000000" stroke-width="1.3024" stroke-miterlimit="10" d="M558.315,418.336V358.67h11.722
		l24.419,39.846V358.67h11.192v59.666h-12.087l-24.054-38.909v38.909H558.315z"/>
	<path fill="#FFFFFF" stroke="#000000" stroke-width="1.3024" stroke-miterlimit="10" d="M651.323,418.336v-49.572h-17.704V358.67
		h47.415v10.094H663.37v49.572H651.323z"/>
</g>
<line fill="none" stroke="#F7C61B" stroke-width="3" stroke-miterlimit="10" x1="12.093" y1="339.754" x2="688.554" y2="339.754"/>
<g>
	<path fill-rule="evenodd" clip-rule="evenodd" fill="#F7C61B" d="M23.505,168.143c1.786-0.207,3.571-0.412,5.356-0.617
		c0.646,0.011,1.292,0.022,1.938,0.033c1.365,0.076,2.729,0.153,4.094,0.229c0.617,0.136,1.231,0.272,1.848,0.408
		c1.58,0.709,3.159,1.417,4.739,2.125c0.415,0.351,0.83,0.703,1.245,1.054c0.987,1.28,1.961,2.567,2.613,4.063
		c0.227,0.716,0.455,1.432,0.679,2.149c0.403,2.036,1.469,3.676,2.998,5.042c0.457,0.619,0.997,1.127,1.744,1.381
		c1.165,0.947,2.476,1.604,3.935,1.96c0.272,0.207,0.544,0.41,0.817,0.617c-1.67,2.938-3.288,5.9-4.304,9.145
		c-0.142,0.451-0.323,0.817-0.861,0.844c-0.367-0.168-0.734-0.337-1.103-0.507c-1.349-0.891-2.697-1.781-4.046-2.672
		c-0.287-0.257-0.576-0.515-0.864-0.771c-1.084-1.352-2.167-2.703-3.25-4.052c-0.196-0.598-0.352-1.217-0.934-1.587
		c-0.627-1.829-1.39-3.596-2.378-5.261c-0.416-0.893-0.836-1.781-1.593-2.45c-0.731-1.473-1.776-2.686-3.066-3.698
		c-0.188-0.198-0.375-0.397-0.563-0.596c-1.295-1.406-2.772-2.567-4.521-3.361c-0.323-0.419-0.745-0.664-1.27-0.734
		c-1.324-0.931-2.801-1.49-4.379-1.806C22.309,168.232,23.126,168.449,23.505,168.143z"/>
	<path fill-rule="evenodd" clip-rule="evenodd" fill="#F7C61B" d="M20.32,197.735c-1.4-0.584-2.853-0.905-4.376-0.88
		c-0.813-0.322-1.661-0.27-2.508-0.252c-0.643-0.034-1.285-0.069-2.169-0.117c1.416-1.225,3.068-1.633,4.451-2.497
		c0.684-0.305,1.369-0.61,2.052-0.917c2.008-0.532,4.016-1.064,6.024-1.596c0.612-0.055,1.223-0.108,1.834-0.162
		c1.555,0.159,3.108,0.319,4.663,0.477c0.6,0.244,1.199,0.488,1.798,0.731c1.11,0.872,2.219,1.743,3.329,2.615
		c0.417,0.496,0.835,0.994,1.253,1.49c0.763,1.589,1.973,2.722,3.55,3.481c0.475,0.463,1.034,0.754,1.701,0.823
		c1.386,0.701,2.857,1.01,4.408,0.941c0.689,0.264,1.392,0.288,2.106,0.133c0.572,0.759,0.136,1.555,0.042,2.317
		c-0.313,2.532-0.608,5.059-0.295,7.613c-0.127,0.446-0.048,1.046-0.777,1.042c-1.499-0.235-2.997-0.469-4.497-0.704
		c-0.507-0.175-1.014-0.351-1.522-0.525c-1.214-0.643-2.428-1.282-3.644-1.924c-0.481-0.333-0.965-0.667-1.447-1
		c-1.193-1.156-2.384-2.312-3.576-3.468c-0.342-0.616-0.808-1.111-1.448-1.427c-0.881-1.109-1.995-1.927-3.231-2.594
		c-0.515-0.319-1.029-0.64-1.543-0.96c-1.191-0.937-2.538-1.548-4-1.918C21.847,197.994,21.101,197.81,20.32,197.735z"/>
	<path fill-rule="evenodd" clip-rule="evenodd" fill="#F7C61B" d="M13.242,225.834c-0.484,0.163-0.969,0.324-1.714,0.572
		c1.213-2.13,3.069-3.413,4.413-5.12c0.362-0.104,0.655-0.28,0.746-0.68l-0.007,0.014c0.979-0.762,1.959-1.524,2.939-2.287
		c1.957-1.11,3.977-2.081,6.133-2.747c0.692-0.104,1.386-0.208,2.078-0.313c1.5,0.2,3,0.398,4.5,0.598
		c0.576,0.269,1.151,0.536,1.728,0.804c1.111,0.789,2.117,1.749,3.48,2.127c0.618,0.515,1.349,0.689,2.129,0.716
		c1.726,0.578,3.458,0.603,5.195,0.049c0.706-0.194,1.411-0.387,2.116-0.581c1.532-0.658,2.293-0.158,2.39,1.512
		c0.042,0.723,0.258,1.435,0.396,2.152c0.248,0.855,0.498,1.711,0.746,2.567c0.084,0.357,0.15,0.721,0.259,1.071
		c0.86,2.763,0.864,2.761-1.999,3.501c-0.069,0.019-0.128,0.07-0.192,0.109c-0.719,0.02-1.437,0.038-2.156,0.058
		c-1.732-0.153-3.463-0.308-5.195-0.461c-0.507-0.124-1.013-0.247-1.518-0.37c-1.266-0.466-2.531-0.934-3.797-1.402
		c-0.755-0.378-1.511-0.756-2.266-1.135c-1.158-0.789-2.456-1.221-3.819-1.483c-0.635-0.175-1.271-0.349-1.907-0.524
		c-1.62-0.469-3.258-0.744-4.95-0.508c-0.57-0.32-1.131-0.105-1.695,0.024c-2.046-0.178-3.975,0.343-5.879,0.998
		C14.578,225.048,13.845,225.253,13.242,225.834z"/>
	<path fill-rule="evenodd" clip-rule="evenodd" fill="#F7C61B" d="M42.224,146.25c1.172,0.2,2.345,0.402,3.519,0.602
		c0.478,0.3,0.991,0.458,1.56,0.397c1.49,0.57,2.979,1.14,4.468,1.71c0.556,0.286,1.11,0.572,1.665,0.858
		c1.189,0.874,2.376,1.747,3.564,2.621c0.47,0.544,0.937,1.089,1.404,1.632c0.861,1.632,1.84,3.214,2.066,5.102
		c0.077,0.905,0.154,1.81,0.231,2.716l0.006-0.015c-0.258,0.313-0.23,0.653-0.098,1.003c-0.344,2.545,0.283,4.832,1.84,6.868
		c0.303,0.802,0.796,1.459,1.505,1.948c2.117,2.653,2.102,2.637-0.362,5.06c-1.143,1.123-2.182,2.349-3.33,3.463
		c-0.651,0.631-1.035,1.656-2.176,1.655c-0.168-0.441-0.394-0.833-0.865-1.017c-0.995-1.537-1.988-3.072-2.983-4.608
		c-0.242-0.554-0.483-1.107-0.726-1.662c-0.697-2.433-1.489-4.845-1.558-7.411c0.049-1.075,0.075-2.147-0.358-3.168
		c-0.034-2.442-0.975-4.638-1.873-6.846c-0.152-0.614-0.281-1.242-0.854-1.638c-0.666-1.751-1.63-3.308-2.994-4.603
		c-0.147-0.495-0.479-0.837-0.917-1.088c-0.694-1.316-2.11-1.955-2.949-3.133C42.082,146.548,42.153,146.398,42.224,146.25z"/>
	<path fill-rule="evenodd" clip-rule="evenodd" fill="#F7C61B" d="M169.699,197.994c1.962,0.124,3.885-0.108,5.773-0.644
		c0.658,0.087,1.236-0.159,1.809-0.43c1.005-0.335,2.01-0.67,3.551-1.185c-2.237,3.133-4.869,5.003-7.175,7.194
		c-0.791,0.482-1.583,0.963-2.376,1.444c-1.952,1.073-4.09,1.635-6.208,2.253c-0.791-0.007-1.58-0.014-2.371-0.021
		c-1.152-0.276-2.306-0.554-3.458-0.832c-0.561-0.279-1.12-0.56-1.68-0.841c-1.315-1.18-2.768-2.091-4.563-2.329
		c-0.479-0.297-0.988-0.438-1.549-0.284c-1.874-0.42-3.689-0.19-5.462,0.496c-0.847,0.25-1.693,0.502-2.54,0.752
		c-0.452-2.022-0.904-4.044-1.355-6.066c0.07-0.648-0.183-1.199-0.513-1.729c-0.431-1.493-1.172-3.115,1.394-3.368
		c0.756-0.09,1.511-0.181,2.267-0.271c1.411,0.035,2.821,0.069,4.23,0.102c0.653,0.118,1.307,0.235,1.959,0.352
		c1.398,0.453,2.796,0.905,4.196,1.358c0.571,0.269,1.145,0.537,1.717,0.806c1.117,0.822,2.383,1.298,3.719,1.617
		c0.654,0.454,1.393,0.625,2.171,0.672c1.586,0.593,3.221,0.91,4.92,0.833C168.671,197.913,169.185,197.953,169.699,197.994z"/>
	<path fill-rule="evenodd" clip-rule="evenodd" fill="#F7C61B" d="M133.451,159.57c2.159-0.576,4.364-1.035,6.221-2.395
		c0.72-0.26,1.503-0.409,1.978-1.107c4.683-2.608,7.639-6.75,10.081-11.346c0.05,1.042,0.104,2.083,0.155,3.124
		c-0.414,2.462-0.706,4.953-1.268,7.382c-1.018,4.395-3.225,8.047-7.163,10.48c-0.702,0.252-1.404,0.504-2.106,0.757
		c-1.994,0.601-4.198,0.195-6.095,1.264c-0.92,0.22-1.716,0.664-2.396,1.32c-1.543,0.833-2.745,2.084-3.557,3.569
		c-0.928,1.696-1.836,2.223-3.31,0.686c-0.331-0.455-0.739-0.8-1.298-0.936c-1.162-1.102-2.554-1.834-3.996-2.485
		c-0.413-0.414-0.89-0.701-1.479-0.778c-0.267-2.038,1.821-2.612,2.519-4.051c0.975-0.725,1.951-1.45,2.925-2.175
		c1.953-1.144,4-2.084,6.14-2.821C131.685,159.896,132.568,159.733,133.451,159.57z"/>
	<path fill-rule="evenodd" clip-rule="evenodd" fill="#F7C61B" d="M170.097,168.518c-0.534,3.441-2.555,6.179-4.326,9.026
		c-0.504,0.804-1.133,1.529-1.704,2.29c-0.255,0.117-0.51,0.24-0.763,0.362l0.004-0.028c-0.005,0.001-0.005,0.001-0.008,0.001
		c-0.38,0.1-0.694,0.269-0.735,0.718c-0.348,0.389-0.691,0.779-1.039,1.166c-1.756,0.969-3.561,1.819-5.521,2.286
		c-0.865,0.007-1.726,0.008-2.588,0.016c-1.629-0.323-3.209-0.949-4.913-0.864c-0.646-0.186-1.295-0.219-1.944-0.017
		c-2.582,0.426-5.003,1.21-6.922,3.108c-0.729,0.075-1.055,1.031-1.897,0.863c-0.602-1.649-1.577-3.075-2.675-4.427
		c-0.312-0.402-0.628-0.802-0.94-1.203c-0.403-0.521-0.733-1.118-1.217-1.547c-1.429-1.269-0.757-2.046,0.549-2.719
		c1.171-0.602,2.346-1.189,3.519-1.787c0.707-0.212,1.412-0.428,2.114-0.64c1.965-0.196,3.928-0.392,5.894-0.588
		c0.463,0.042,0.926,0.083,1.389,0.122c1.396,0.339,2.806,0.567,4.25,0.409c0.835,0.242,1.671,0.234,2.508,0.007
		c1.989,0.137,3.899-0.21,5.76-0.91c0.819,0.129,1.528-0.115,2.146-0.649c2.069-0.479,3.794-1.725,5.689-2.581
		c0.478-0.449,0.951-0.898,1.429-1.347c0.357-0.091,0.641-0.265,0.738-0.648C169.295,168.794,169.695,168.657,170.097,168.518z"/>
	<path fill-rule="evenodd" clip-rule="evenodd" fill="#F7C61B" d="M163.308,180.168l-0.004,0.028
		c-0.002-0.004-0.002-0.004-0.003-0.008c-0.002-0.004-0.004-0.012-0.001-0.019C163.303,180.169,163.303,180.169,163.308,180.168z"/>
	<path fill-rule="evenodd" clip-rule="evenodd" fill="#F7C61B" d="M170.417,224.094c-0.091,0.208-0.182,0.414-0.274,0.62
		c-0.909,0.189-1.665,0.681-2.401,1.215c-2.202,0.876-4.402,1.753-6.604,2.63c-0.693,0.203-1.388,0.406-2.083,0.609
		c-1.105-1.014-2.212-2.027-3.318-3.039c-0.212-0.427-0.367-0.901-0.89-1.071c-0.929-1.548-2.16-2.759-3.843-3.469
		c-0.53-0.415-1.108-0.708-1.794-0.741c-1.717-0.724-3.504-0.864-5.336-0.638c-0.207-0.052-0.416-0.104-0.623-0.155
		c0.199-2.317,0.487-4.63,0.577-6.951c0.148-3.846,0.095-3.847,3.943-3.434c0.707,0.205,1.413,0.414,2.121,0.62
		c1.157,0.565,2.313,1.132,3.47,1.698c0.487,0.333,0.976,0.663,1.463,0.994c1.236,1.117,2.472,2.234,3.708,3.352
		c0.389,0.354,0.777,0.706,1.164,1.06c0.959,1.238,2.204,2.147,3.472,3.03c0.375,0.506,0.908,0.776,1.483,0.982
		c1.366,1.107,2.916,1.825,4.627,2.213C169.659,223.777,170.038,223.937,170.417,224.094z"/>
	<polygon fill-rule="evenodd" clip-rule="evenodd" fill="#F7C61B" points="117.167,147.286 117.173,147.279 117.174,147.283 	"/>
	<path fill-rule="evenodd" clip-rule="evenodd" fill="#F7C61B" d="M124.893,130.764c0.001,0.018-0.001,0.039,0,0.057
		c-0.005,0.001-0.006-0.003-0.011-0.002L124.893,130.764z"/>
	<path fill-rule="evenodd" clip-rule="evenodd" fill="#F7C61B" d="M102.794,135.248c0.972,1.891,1.233,3.967,1.582,6.022
		c-0.275,1.631-0.553,3.259-0.827,4.891c-0.368,0.698-0.728,1.399-1.091,2.095c-0.881,0.979-1.771,1.944-2.636,2.93
		c-2.133,2.425-3.174,5.211-2.826,8.461c-0.017,0.441-0.154,0.912-0.037,1.308c0.544,1.799-0.018,2.702-1.954,2.603
		c-0.474-0.295-0.943-0.157-1.407,0.021c-1.717-0.332-3.354,0.444-5.05,0.368c-0.254,0.141-0.502,0.28-0.754,0.42
		c-0.469,0.082-0.94,0.159-1.408,0.241c-0.018-0.164-0.039-0.325-0.056-0.487c0.257-0.325,0.206-0.665,0.035-1.005l-0.035-0.008
		c-0.357-5.423,1.418-10.152,4.697-14.388c3.375-4.359,5.702-9.129,5.847-14.762c0.225-0.308,0.208-0.635,0.068-0.973
		c0.198-1.091,0.228-2.178-0.119-3.251c0.299-1.289-0.527-2.479-0.387-3.812c0.805,0.012,0.95,0.797,1.455,1.092
		c0.317,0.4,0.635,0.794,0.952,1.194c0.903,1.389,1.806,2.778,2.707,4.163c0.141,0.408,0.282,0.815,0.42,1.217
		c0.273,0.396,0.54,0.793,0.813,1.189C102.784,134.937,102.787,135.09,102.794,135.248z"/>
	<path fill-rule="evenodd" clip-rule="evenodd" fill="#F7C61B" d="M136.498,209.259c-0.165-0.341-0.226-0.679,0.035-1.003
		c0.061-0.335,0.121-0.673,0.183-1.009c-0.143-0.564-0.284-1.131-0.425-1.696c-0.012-0.498-0.019-1.001-0.032-1.502
		c-0.369-2.025-0.826-4.032-1.642-5.937c-0.027-0.301-0.051-0.601-0.076-0.902c-0.222-0.395-0.444-0.789-0.662-1.183
		c-0.107-0.437-0.219-0.869-0.327-1.3c-0.636-1.337-1.271-2.676-1.908-4.012c-0.103-0.013-0.205-0.01-0.306-0.002
		c-0.27-0.546-0.417-1.171-0.97-1.54c-0.103-0.261-0.202-0.518-0.304-0.777c-0.957-1.232-1.918-2.461-2.877-3.689
		c-0.034-0.148-0.063-0.294-0.1-0.441c-0.328-0.229-0.656-0.452-0.978-0.675c-0.048-0.13-0.084-0.263-0.11-0.396
		c-1.222-0.944-2.067-2.315-3.474-3.048c-0.042-0.142-0.081-0.287-0.123-0.428c-0.366-0.2-0.731-0.396-1.096-0.595
		c-0.057-0.134-0.101-0.27-0.136-0.407c-1.234-0.849-2.472-1.694-3.703-2.544c-0.136,0.021-0.267,0.034-0.405,0.042
		c-0.281-0.169-0.567-0.342-0.85-0.514c-0.023-0.095-0.04-0.188-0.048-0.287c-1.436-0.691-2.87-1.385-4.303-2.076
		c-0.139,0.031-0.276,0.054-0.417,0.063c-0.369-0.148-0.74-0.296-1.107-0.441c-0.075-0.114-0.154-0.225-0.243-0.336
		c-1.342-0.389-2.689-0.778-4.037-1.167c-0.084,0.057-0.172,0.11-0.268,0.15c-0.487-0.31-1.015-0.458-1.596-0.376
		c-0.072-0.107-0.16-0.213-0.249-0.312c-1.556-0.13-3.11-0.259-4.67-0.386c-0.083-0.1-0.17-0.205-0.261-0.305
		c-0.362,0.088-0.727,0.177-1.087,0.261c-0.081-0.105-0.17-0.203-0.262-0.297c-1.691,0.071-3.382,0.139-5.068,0.205
		c-0.755,0.084-1.504,0.164-2.252,0.25c-1.874,0.474-3.742,0.954-5.61,1.43c-0.27,0.142-0.538,0.283-0.804,0.423
		c-0.438,0.093-0.874,0.188-1.316,0.283c-0.267,0.141-0.533,0.28-0.804,0.424c-2.242,0.377-4.069,1.722-6.094,2.612
		c-0.5,0.414-0.997,0.832-1.494,1.248c-0.29,0.076-0.581,0.158-0.867,0.236c-0.597,0.544-1.193,1.086-1.788,1.63
		c-3.421,2.209-5.836,5.414-8.369,8.498c-2.223,3.506-4.09,7.182-5.475,11.102c-0.909,3.692-1.939,7.365-1.659,11.238
		c0.004-0.002,0.007-0.007,0.008-0.013c0.003,0.005,0.003,0.005,0.004,0.008c0.13,0.336,0.176,0.663-0.074,0.974
		c-0.073,0.34-0.149,0.676-0.228,1.017c0.118,0.411,0.234,0.818,0.353,1.223c0.006-0.002,0.01-0.002,0.017-0.005l0.021-0.008v0.004
		c0.174,0.336,0.236,0.666-0.019,0.995c-0.062,0.337-0.12,0.676-0.183,1.009c0.704,2.142,0.312,4.503,1.336,6.578
		c0.048,0.298,0.094,0.595,0.143,0.893c0.285,0.687,0.573,1.372,0.861,2.059l-0.154,0.033c0.5,1.584,1.245,3.048,2.121,4.453
		c0.126,0.422,0.247,0.839,0.372,1.26c0.281,0.375,0.566,0.753,0.846,1.132c0.006,0.157,0.017,0.316,0.023,0.475
		c1.428,0.839,2.873-0.083,4.309,0.065c0.405-0.078,0.81-0.151,1.215-0.232c0.358,0.021,0.716,0.042,1.077,0.059
		c0.212,0.002,0.427,0.002,0.638,0.006c-0.01-0.089,0.02-0.156,0.093-0.2l0.122,0.166c1.552-0.316,3.116-0.425,4.691-0.264
		c0.272-0.084,0.545-0.176,0.816-0.261c0.253-0.035,0.502-0.059,0.749-0.091c0.088,0.098,0.177,0.193,0.268,0.284
		c1.682-0.341,3.382-0.219,5.079-0.167c0.274-0.04,0.539-0.081,0.812-0.12c-0.004-0.101-0.004-0.196,0.008-0.289
		c-0.008,0.091-0.008,0.186-0.004,0.288c0.378,0.074,0.748,0.147,1.123,0.222c0.272-0.084,0.549-0.166,0.821-0.248
		c1.416,0.19,2.84,0.204,4.261,0.031c0.048,0.072,0.101,0.143,0.148,0.222l1.791,0.106c0.136-0.07,0.271-0.145,0.406-0.216
		c1.594,0.134,3.192,0.267,4.79,0.396c0.279-0.047,0.559-0.093,0.837-0.138c0.392,0.094,0.785,0.189,1.177,0.282
		c0.113-0.057,0.221-0.12,0.331-0.185c1.282,0.111,2.57,0.225,3.855,0.335c0.302-0.025,0.606-0.057,0.909-0.085
		c0.752,0.025,1.502,0.057,2.262,0.08c0.051,0.072,0.103,0.144,0.154,0.216c1.273,0.059,2.549,0.12,3.826,0.174
		c0.275-0.049,0.553-0.099,0.828-0.154l0.003,0.005c0.376,0.099,0.751,0.2,1.126,0.299c0.126-0.053,0.253-0.111,0.375-0.177
		c1.607,0.116,3.214,0.229,4.817,0.352c0.129-0.068,0.256-0.133,0.382-0.203c0.749,0.01,1.504,0.028,2.251,0.04
		c0.049,0.072,0.102,0.148,0.158,0.22c1.409,0.012,2.816,0.029,4.227,0.045c0.281-0.084,0.563-0.168,0.84-0.252
		c0.197,0.091,0.394,0.173,0.589,0.257c0.273-0.083,0.549-0.168,0.82-0.253c1.593,0.076,3.184,0.157,4.771,0.23
		c0.927-0.183,1.21-0.978,1.619-1.664c2.382-4,3.944-8.316,5.055-12.818c0.333-2.974,1.033-5.928,0.588-8.953L136.498,209.259z
		 M75.345,190.261c0.115,0.346,0.209,0.693-0.059,1.016c0.008-0.002,0.019,0,0.026-0.004l-0.033,0.017c0-0.005,0-0.005-0.002-0.009
		C75.105,190.932,75.046,190.585,75.345,190.261z"/>
	<path fill-rule="evenodd" clip-rule="evenodd" fill="#F7C61B" d="M125.407,130.987c0.714,2.256,1.425,4.515,2.138,6.776
		c-0.147,0.934,0.149,1.795,0.432,2.661c0.002,0.734-0.025,1.468,0.002,2.199c0.257,6.373-2.495,10.923-8.255,13.654
		c-3.361,1.406-4.928,4.218-5.937,7.498c-0.298,0.956-0.063,2.095-0.925,2.869c-1.293-0.551-2.593-1.078-4.019-1.188
		c-0.079-0.109-0.157-0.215-0.238-0.319c-0.532-0.122-1.061-0.25-1.593-0.372c-0.112,0.046-0.225,0.098-0.336,0.159
		c-1.216-0.573-2.671-0.36-3.822-1.146c0.605-3.713,2.634-6.688,4.95-9.51c2.045-1.675,3.978-3.503,6.436-4.599
		c0.466-0.469,0.932-0.938,1.399-1.407c0.363-0.103,0.66-0.277,0.747-0.68v0.015c0.264-0.107,0.523-0.212,0.788-0.318
		c-0.004,0.001-0.003,0.005-0.007,0.007c0.003-0.001,0.003-0.001,0.007-0.003c0.351-0.116,0.641-0.298,0.707-0.707
		c0.461-0.567,0.928-1.135,1.383-1.708c3.262-4.131,5.504-8.665,5.629-14.047C125.061,130.876,125.236,130.926,125.407,130.987z"/>
	<path fill-rule="evenodd" clip-rule="evenodd" fill="#F7C61B" d="M80.31,147.874c-0.182,0.692-0.356,1.387-0.537,2.08
		c-0.333,0.252-0.333,0.589-0.245,0.953c0.004,0.658-0.281,1.207-0.658,1.721c-0.024,0.28-0.049,0.554-0.078,0.832
		c-0.116,0.385-0.23,0.769-0.347,1.154c-0.277,0.275-0.293,0.608-0.211,0.966c-0.139,0.523-0.276,1.051-0.416,1.574
		c-0.034,0.25-0.068,0.5-0.103,0.747l0.086,0.077l-0.037,0.111c0.463,1.867,0.46,3.868,1.512,5.577
		c0.349,0.665,0.697,1.332,1.045,1.997c0.033,0.504-0.388,0.649-0.701,0.875c-0.756,0.13-1.507,0.278-2.074,0.87
		c-2.042,0.53-3.75,1.808-5.697,2.554c-0.384,0.545-0.902,0.792-1.569,0.715c-0.148-0.349-0.298-0.697-0.451-1.043
		c-0.053-0.297-0.107-0.586-0.163-0.881c-1.005-1.89-1.054-4.017-1.523-6.042c0.071-0.646,0.14-1.296,0.21-1.941
		c-0.077-0.274-0.159-0.547-0.236-0.82c0.263-0.308,0.194-0.655,0.109-1.006c0.542-1.364,0.436-2.92,1.257-4.205
		c0.763-3.373,1.618-6.733,1.177-10.247c-0.014-1.193-0.008-2.394-0.53-3.512c-0.175-2.282-0.888-4.381-2.11-6.314
		c-0.169-0.608-0.283-1.245-0.871-1.629c0.343-0.447-1.797-1.475,0.354-1.494c0.546,0.319,1.091,0.634,1.638,0.953
		c1.204,0.833,2.41,1.667,3.61,2.502c0.418,0.329,0.832,0.659,1.25,0.983c1.101,1.179,2.199,2.357,3.299,3.536
		c0.145,0.264,0.295,0.532,0.44,0.798c0.232,0.25,0.46,0.497,0.689,0.748c0.154,0.403,0.306,0.807,0.454,1.207
		C79.881,144.005,80.109,145.938,80.31,147.874z"/>
	<polygon fill-rule="evenodd" clip-rule="evenodd" fill="#F7C61B" points="117.173,147.279 117.174,147.283 117.167,147.286 	"/>
	<path fill-rule="evenodd" clip-rule="evenodd" fill="#F7C61B" d="M163.308,180.168l-0.004,0.028
		c-0.002-0.004-0.002-0.004-0.003-0.008c-0.002-0.004-0.004-0.012-0.001-0.019C163.303,180.169,163.303,180.169,163.308,180.168z"/>
	<path fill-rule="evenodd" clip-rule="evenodd" fill="#F7C61B" d="M168.897,168.922c-0.002,0.006-0.001,0.009-0.003,0.016
		c-0.098,0.383-0.381,0.557-0.738,0.648C168.247,169.19,168.536,169.015,168.897,168.922z"/>
	<path fill-rule="evenodd" clip-rule="evenodd" fill="#F7C61B" d="M34.364,182.587c-0.211,0.352-0.546,0.426-0.922,0.411
		C33.653,182.642,33.983,182.558,34.364,182.587z"/>
	<path fill-rule="evenodd" clip-rule="evenodd" fill="#F7C61B" d="M78.446,154.614c0.112,0.36,0.112,0.697-0.211,0.966
		C78.153,155.222,78.168,154.889,78.446,154.614z"/>
	<path fill-rule="evenodd" clip-rule="evenodd" fill="#F7C61B" d="M116.386,147.583c-0.087,0.403-0.384,0.578-0.747,0.68
		C115.723,147.855,116.013,147.675,116.386,147.583z"/>
	<path fill-rule="evenodd" clip-rule="evenodd" fill="#F7C61B" d="M41.643,146.725c0.084-0.226,0.172-0.453,0.258-0.679
		c0.107,0.069,0.213,0.14,0.323,0.205c-0.07,0.147-0.142,0.297-0.212,0.446C41.89,146.722,41.766,146.731,41.643,146.725z"/>
	<path fill-rule="evenodd" clip-rule="evenodd" fill="#F7C61B" d="M60.707,161.874c0.149,0.353,0.173,0.692-0.098,1.003
		C60.476,162.526,60.448,162.187,60.707,161.874z"/>
	<path fill-rule="evenodd" clip-rule="evenodd" fill="#F7C61B" d="M163.308,180.168c-0.004,0.005-0.005,0.015-0.007,0.02
		c-0.085,0.394-0.397,0.563-0.736,0.699c0.042-0.449,0.355-0.618,0.735-0.718C163.303,180.169,163.303,180.169,163.308,180.168z"/>
	<path fill-rule="evenodd" clip-rule="evenodd" fill="#F7C61B" d="M117.88,146.576c-0.065,0.409-0.356,0.59-0.707,0.707
		c-0.004,0.002-0.004,0.002-0.007,0.003c0.003-0.001,0.002-0.005,0.007-0.007C117.408,147.046,117.645,146.812,117.88,146.576z"/>
	<path fill-rule="evenodd" clip-rule="evenodd" fill="#F7C61B" d="M75.313,191.273l-0.033,0.017c0-0.005,0-0.005-0.002-0.009
		c0.004-0.003,0.004-0.003,0.009-0.004C75.294,191.275,75.305,191.277,75.313,191.273z"/>
	<path fill-rule="evenodd" clip-rule="evenodd" fill="#F7C61B" d="M79.772,149.954c-0.082,0.318-0.163,0.635-0.245,0.953
		C79.439,150.542,79.439,150.206,79.772,149.954z"/>
	<path fill-rule="evenodd" clip-rule="evenodd" fill="#F7C61B" d="M96.941,132.985c0.14,0.338,0.157,0.665-0.068,0.973
		c-0.002,0.01-0.01,0.017-0.017,0.023C96.738,133.639,96.671,133.3,96.941,132.985z"/>
	<path fill-rule="evenodd" clip-rule="evenodd" fill="#F7C61B" d="M15.093,228.648c-0.147,0.017-0.293,0.035-0.444,0.052
		c0.07-0.103,0.129-0.209,0.168-0.319C14.929,228.451,15.018,228.541,15.093,228.648z"/>
	<path fill-rule="evenodd" clip-rule="evenodd" fill="#F7C61B" d="M86.329,164.121c-0.149-0.339-0.23-0.677,0.035-1.005
		C86.535,163.456,86.586,163.795,86.329,164.121z"/>
	<path fill-rule="evenodd" clip-rule="evenodd" fill="#F7C61B" d="M68.228,158.942c0.085,0.351,0.154,0.698-0.109,1.006
		c-0.002,0.005-0.01,0.012-0.017,0.019C67.932,159.598,67.886,159.248,68.228,158.942z"/>
	<path fill-rule="evenodd" clip-rule="evenodd" fill="#F7C61B" d="M56.078,209.764l-0.013,0.005
		c0.004-0.002,0.007-0.007,0.008-0.013C56.077,209.761,56.077,209.761,56.078,209.764z"/>
	<path fill-rule="evenodd" clip-rule="evenodd" fill="#F7C61B" d="M56.167,212.965v0.004c0,0,0,0-0.004,0.002
		c-0.007,0.001-0.01,0.001-0.017,0.001L56.167,212.965z"/>
	<path fill-rule="evenodd" clip-rule="evenodd" fill="#F7C61B" d="M56.167,212.965v0.004c0,0,0,0-0.004,0.002
		c-0.007,0.001-0.01,0.001-0.017,0.001L56.167,212.965z"/>
	<path fill-rule="evenodd" clip-rule="evenodd" fill="#F7C61B" d="M56.078,209.764l-0.013,0.005
		c0.004-0.002,0.007-0.007,0.008-0.013C56.077,209.761,56.077,209.761,56.078,209.764z"/>
	<path fill-rule="evenodd" clip-rule="evenodd" fill="#F7C61B" d="M56.004,210.738c-0.145-0.335-0.164-0.661,0.062-0.969
		c0.004-0.002,0.007-0.007,0.008-0.013c0.003,0.005,0.003,0.005,0.004,0.008C56.208,210.1,56.254,210.427,56.004,210.738z"/>
	<path fill-rule="evenodd" clip-rule="evenodd" fill="#F7C61B" d="M56.147,213.964c-0.149-0.335-0.255-0.664,0.015-0.993
		c0.004-0.002,0.004-0.002,0.004-0.002C56.34,213.305,56.403,213.634,56.147,213.964z"/>
	<path fill-rule="evenodd" clip-rule="evenodd" fill="#F7C61B" d="M136.498,209.259c-0.165-0.341-0.226-0.679,0.035-1.003
		C136.683,208.592,136.763,208.932,136.498,209.259z"/>
	<path fill-rule="evenodd" clip-rule="evenodd" fill="#F7C61B" d="M154.508,229.704c0.297,0.438,0.595,0.875,0.893,1.313
		c0.212,0.992,1.458,2.069,0.858,2.794c-0.757,0.915-2.172,0.029-3.305,0.021c-0.734-0.158-1.468-0.317-2.202-0.474
		c-1.365-0.352-2.729-0.705-4.093-1.057c1.038-2.356,3.13-3.871,4.681-5.818c0.042-0.054,0.388,0.134,0.592,0.207
		C152.79,227.695,153.649,228.699,154.508,229.704z"/>
	<path fill-rule="evenodd" clip-rule="evenodd" fill="#F7C61B" d="M75.313,191.273l-0.033,0.017c0-0.005,0-0.005-0.002-0.009
		c0.004-0.003,0.004-0.003,0.009-0.004C75.294,191.275,75.305,191.277,75.313,191.273z"/>
	<path fill-rule="evenodd" clip-rule="evenodd" fill="#F7C61B" d="M75.287,191.277c0,0,0,0.01-0.007,0.013
		c0-0.005,0-0.005-0.002-0.009c-0.172-0.35-0.232-0.696,0.067-1.02C75.46,190.607,75.554,190.955,75.287,191.277z"/>
</g>
</svg>
