<svg version="1" xmlns="http://www.w3.org/2000/svg" width="1612" height="430.667" viewBox="0 0 1209 323"><path d="M15 24v10h349v-6l36.7.2 36.8.3.3 2.7.3 2.8h33.8l.3-2.8.3-2.7h73l.3 2.7.3 2.8h68.8l.3-2.8.3-2.7h73l.3 2.8.3 2.8 33.7-.4 33.7-.3 8.6-3.2c11.2-4.1 20-5.9 34.7-7.1 22.4-1.8 45.9 1.2 62.6 8.1l6.9 2.8H943V14H15v10zM950 24v10h34.9l.3-2.8.3-2.7h174l.3 2.7.3 2.8h34.9V14H950v10zM15.4 41.9c-.2.2-.4 3.7-.4 7.8V57h349.1l-.3-7.5-.3-7.5-173.8-.3c-95.6-.1-174.1 0-174.3.2zM438 49.2V57h34.1l-.3-7.7-.3-7.6-16.7-.1-16.8-.1v7.7zM546 49.2V57h69v-7.5c0-4.1-.3-7.5-.7-7.5-.5 0-16-.2-34.6-.3l-33.7-.2v7.7zM690 41.8c-.5.2-1 3.7-1 7.8V57h37.1l7.5-7.7c4.1-4.2 7.4-7.7 7.4-7.7 0-.3-50.2 0-51 .2zM882 42c0 .2 1.7 2 3.8 4 2 1.9 5.2 5.2 6.9 7.3L896 57l23.2-.2 23.3-.3V41.8l-30.3-.1c-16.6-.1-30.2 0-30.2.3zM950 49.5V57h35V42h-35v7.5zM1160 49.5V57h35V42h-35v7.5zM15 72v8h349V64H15v8zM438 72v8h34V64h-34v8zM546 72v8h69V64h-69v8zM689 72v8.1l14.1-.3 14.2-.3 2.3-7c1.3-3.9 2.3-7.3 2.4-7.8 0-.4-7.4-.7-16.5-.7H689v8zM901 64.7c0 .5 1.3 3.9 2.9 7.8l2.8 7h35.8v-15l-20.7-.3c-11.5-.1-20.8.1-20.8.5zM950 72v8h35V64h-35v8zM1160 72v8h35V64h-35v8zM803 74.6c-6 1.1-11 2.8-12.1 4-1 1.2 2.1 1.4 19.2 1.4 18.3-.1 20.2-.2 18.4-1.6-1.1-.8-3.5-1.9-5.5-2.4-4.3-1.1-16.6-2-20-1.4zM15.2 94.7l.3 7.8h348l.3-7.8.3-7.7H14.9l.3 7.7zM438 95v8h34V87h-34v8zM546 95v8h69V87h-69v8zM689 95v8h13.3c7.4 0 13.6-.2 13.8-.4.2-.2.3-3.8.1-8l-.4-7.6H689v8zM787 88.9c0 3.4 4.5 8.5 9.9 11.3l5.4 2.8 70.1-.2 70.1-.3v-15l-16.7-.3L909 87v7l-34.7-.2-34.7-.3-1-3.3-.9-3.2h-25.3c-24.1 0-25.4.1-25.4 1.9zM950.2 94.7c.2 4.3.6 7.7 1.1 7.5.4-.1 8.1-.2 17.2-.2H985V87h-35.1l.3 7.7zM1059.2 94.6l.3 7.5h67.5l67.5-.1.3-7.5.3-7.5h-136.2l.3 7.6zM15 117.5v7.5h349v-15H15v7.5zM438 117.5v7.5h34v-15h-34v7.5zM546 113.5v3.5h69v-7h-69v3.5zM689 117.5v7.5h17.1c15.9 0 17.1-.1 16.4-1.8-.5-.9-1.7-4.3-2.9-7.5l-2.1-5.7H689v7.5zM844.5 114.5c8.8 2.3 19.5 5.7 23.8 7.4l7.8 3.1H943v-15l-57.2.1h-57.3l16 4.4zM950 117.5v7.5h35v-15h-35v7.5zM1059 117.5v7.5h136v-15h-136v7.5zM15.7 132.7c-.4.3-.7 3.9-.7 8v7.3h349.1l-.3-7.8-.3-7.7-173.6-.3c-95.4-.1-173.9.1-174.2.5zM438 140v8h34.1l-.3-7.8-.3-7.7-16.7-.3-16.8-.2v8zM689 140.2v7.8h28.3l28.2-.1-3.5-2.7c-1.9-1.5-6.1-5.1-9.2-8l-5.6-5.3-19.1.2-19.1.3v7.8zM891.1 132.7c.2.4 3.8 4.1 8 8l7.6 7.3h36.4l-.3-7.8-.3-7.7-25.9-.3c-14.2-.2-25.6.1-25.5.5zM950 140.5v7.5h35v-15h-35v7.5zM1139 140.5v7.5h56v-15h-56v7.5zM15 163v8h244.9l.3-4.8.3-4.7 32.7-.3 32.7-.2.3 4.7.3 4.8 18.8.3 18.7.2v-16H15v8zM437.8 162.6c-.2 4.2-.1 7.8.1 8 .2.2 8 .4 17.3.4H472v-16h-33.8l-.4 7.6zM689 163v8h62.7c34.4 0 62.4-.2 62.2-.5-.3-.2-8.7-2.5-18.8-5-10.1-2.6-22.1-6-26.7-7.6l-8.2-2.9H689v8zM911 155.6c0 .3 1 3.9 2.2 8l2.1 7.5 13.6-.3 13.6-.3v-15l-15.7-.3c-8.7-.1-15.8 0-15.8.4zM950 163v8h35v-16h-35v8zM1139.4 156.4c-.3.7-.4 4.2-.2 7.7l.3 6.4 27.8.3 27.7.2v-16h-27.5c-22.3 0-27.7.3-28.1 1.4zM546 167v4h69v-8h-69v4zM15.2 185.7l.3 7.8 122 .2c67 .2 122.2-.1 122.6-.5.4-.4.5-4 .2-8l-.6-7.2H14.9l.3 7.7zM327.4 182.2c.4 2.4 1.5 5.9 2.4 7.8l1.7 3.5 14.3.3 14.3.3 1.3-3.3c.8-1.8 1.7-5.4 2.1-8.1l.7-4.7h-37.5l.7 4.2zM436.4 185.6c-.6 4.1-.7 7.7-.4 7.9 1 .6 30.9.6 33.4-.1 2.5-.6 2.6-.9 2.6-8V178h-34.7l-.9 7.6zM546.2 185.7l.3 7.8h68l.3-7.8.3-7.7h-69.2l.3 7.7zM689.2 185.7l.3 7.8 11.4.3 11.4.4-.7-5.1-.7-5 34.7-.3c37.5-.3 36.7-.4 37.9 5.1.3 1.6 1.2 3.4 1.8 4 .8.6 12.1.9 30.2.8l29-.2-.1-4.5c-.1-3.8-.6-4.8-3.9-7.7l-3.8-3.3H688.9l.3 7.7zM915.6 185.1c-.3 3.9-.4 7.4-.1 7.9.3.5 6.5.8 13.8.7l13.2-.2.3-7.8.3-7.7h-26.8l-.7 7.1zM950 185.5v7.5h35v-15h-35v7.5zM1059.2 185.7c.2 4.3.6 7.7 1.1 7.5.4-.1 30.9-.2 67.7-.2h67v-15h-136.1l.3 7.7zM15 208.5v7.5h126.1c100.4 0 126-.3 125.7-1.3-.2-.6-1.3-4-2.3-7.4l-2-6.3H15v7.5zM431.5 207.3c-1 3.4-2.1 6.8-2.3 7.4-.3 1 4.4 1.3 21.2 1.3H472v-15h-38.5l-2 6.3zM546 208.5v7.5h69v-15h-69v7.5zM689 208.5v7.5h31.9l-2.3-4.4c-1.3-2.4-2.8-5.8-3.4-7.5l-1.1-3.1H689v7.5zM798.8 203.7c9.4 4.4 28.3 4.1 37.2-.7l3.5-1.9h-23l-23 .1 5.3 2.5zM911.4 206.7c-1.2 3.2-2.4 6.6-2.9 7.5-.7 1.7.5 1.8 16.9 1.8H943v-15h-29.5l-2.1 5.7zM950 208.5v7.5h35v-15h-35v7.5zM1059 208.5v7.5h136v-15h-136v7.5zM15.7 223.7c-.4.3-.7 3.9-.7 8v7.3h269.4l-3.5-3.8c-2-2-5-5.6-6.8-8l-3.3-4.2H143.6c-70 0-127.6.3-127.9.7zM422.4 226.7c-1.5 2.1-4.6 5.7-6.8 8l-4 4.3H472v-16h-46.9l-2.7 3.7zM546.7 223.7c-.4.3-.7 3.9-.7 8v7.3h69.1l-.3-7.8-.3-7.7-33.6-.3c-18.4-.1-33.8.1-34.2.5zM689.7 223.7c-.4.3-.7 3.9-.7 8v7.3h52.9l-8.2-8-8.2-7.9-17.6-.1c-9.7 0-17.9.3-18.2.7zM896.3 231l-8.1 8h54.9l-.3-7.8-.3-7.7-19.1-.3-19.1-.2-8 8zM950.4 223.9c-.2.2-.4 3.7-.4 7.8v7.3h35v-14.9l-17.1-.3c-9.4-.2-17.3-.1-17.5.1zM1059.4 223.9c-.2.2-.4 3.7-.4 7.8v7.3h136.1l-.3-7.5-.3-7.5-67.3-.3c-37.1-.1-67.6 0-67.8.2zM15 257v11h928.1l-.3-10.8-.3-10.7-33.2-.3-33.3-.2-5.9 2.5c-15.9 6.7-35.1 9.9-58.6 9.9-21 0-31.1-1.8-46.5-8l-9.5-3.8-33.2-.3-33.3-.4v7.1h-74v-7h-69v7h-74v-7H403.3l-7.7 3.6c-26.4 12.1-67.6 12.1-93.5-.1l-7.3-3.5H15v11zM950 257v11h245v-22h-136v7h-74v-7h-35v11zM14.4 276.3c-.2.7-.3 7.8-.2 15.7l.3 14.5 590.3.3 590.3.2-.3-15.7-.3-15.8-589.8-.3c-482.4-.2-589.9 0-590.3 1.1z"/></svg>